<svg xmlns="http://www.w3.org/2000/svg" version="1.1" xmlns:xlink="http://www.w3.org/1999/xlink" width="512" height="512" x="0" y="0" viewBox="0 0 32 32" style="enable-background:new 0 0 512 512" xml:space="preserve" fill-rule="evenodd" class=""><rect width="32" height="32" rx="6.4" ry="6.4" fill="#1c51db" shape="rounded"></rect><g transform="matrix(0.7,0,0,0.7,4.800000000000001,4.950000000000001)"><path d="M6 23v3a1 1 0 0 0 1 1h18a1 1 0 0 0 1-1v-3a1 1 0 0 0-2 0v2H8v-2a1 1 0 0 0-2 0z" fill="#ffffff" opacity="1" data-original="#000000"></path><path d="M19.5 16V7a1 1 0 0 0-1-1h-5a1 1 0 0 0-1 1v9H10a1.002 1.002 0 0 0-.707 1.707l6 6a.999.999 0 0 0 1.414 0l6-6A1 1 0 0 0 22 16z" fill="#ffffff" opacity="1" data-original="#000000"></path></g></svg>