<svg xmlns="http://www.w3.org/2000/svg" version="1.1" xmlns:xlink="http://www.w3.org/1999/xlink" width="512" height="512" x="0" y="0" viewBox="0 0 100 100" style="enable-background:new 0 0 512 512" xml:space="preserve" class=""><rect width="100" height="100" rx="20" ry="20" fill="#1c51db" shape="rounded"></rect><g transform="matrix(0.7,0,0,0.7,15,14.999999427795416)"><path d="M82.5 41.465V22.838a6.653 6.653 0 0 0 4.167-6.172A6.662 6.662 0 0 0 80 10a6.666 6.666 0 0 0-6.667 6.666c0 2.8 1.726 5.183 4.167 6.172v12.409C70.332 27.881 60.664 23.333 50 23.333S29.672 27.881 22.5 35.25V22.838a6.656 6.656 0 0 0 4.166-6.172A6.662 6.662 0 0 0 20 10a6.665 6.665 0 0 0-6.666 6.666c0 2.8 1.725 5.183 4.166 6.172v18.63C12.798 48.57 10 57.256 10 66.666 10 79.557 27.91 90 50 90c22.097 0 40-10.443 40-23.334 0-9.414-2.8-18.096-7.5-25.201zM50 73.332c-13.813 0-25-2.984-25-6.666 0-7.813 1.908-14.883 5-20 13.346 4.609 27.656 4.277 40 0 3.093 5.117 5 12.188 5 20 0 3.682-11.194 6.666-25 6.666z" fill="#ffffff" opacity="1" data-original="#000000" class=""></path><path d="M66.667 62.5c0 2.305-1.862 4.166-4.167 4.166s-4.167-1.861-4.167-4.166c0-2.303 1.862-4.168 4.167-4.168s4.167 1.865 4.167 4.168zM41.666 62.5c0 2.305-1.863 4.166-4.166 4.166s-4.166-1.861-4.166-4.166c0-2.303 1.863-4.168 4.166-4.168s4.166 1.865 4.166 4.168z" fill="#ffffff" opacity="1" data-original="#000000" class=""></path></g></svg>